<svg width="55" height="55" viewBox="0 0 55 55" fill="none" xmlns="http://www.w3.org/2000/svg">
<path d="M1.83333 33.3392C1.83333 32.78 2.05333 32.2392 2.45667 31.845C3.20833 31.1025 4.38167 31.02 5.225 31.6433L5.97667 32.2117C6.655 32.7158 7.48917 33 8.34167 33H15.5833C26.7117 32.9908 35.7408 23.9617 35.75 12.8333V0H33.9167V12.8333C33.9075 22.9533 25.7033 31.1575 15.5833 31.1667H8.34167C7.88333 31.1667 7.43417 31.02 7.0675 30.745L6.325 30.1767C4.74833 29.0033 2.5575 29.1592 1.16417 30.5433C0.4125 31.2858 0 32.2942 0 33.3392V55H1.83333V33.3392Z" fill="#003974"/>
<path d="M47.0892 9.17583C45.705 9.12083 44.33 9.41417 43.0834 10.0283V0H41.25V11.6967C41.25 12.2008 41.6625 12.6133 42.1667 12.6133C42.3775 12.6133 42.5792 12.54 42.7442 12.4117C43.9542 11.4492 45.4667 10.945 47.0159 11.0092C50.6917 11.1558 53.1667 15.5742 53.1667 22V25.135C53.1484 39.0958 41.8459 50.3983 27.885 50.4167C21.6517 50.4258 15.8217 47.3092 12.375 42.1117C11.5317 40.8467 9.82671 40.4983 8.56171 41.3417C7.79171 41.855 7.33337 42.7167 7.33337 43.6333V55H9.16671V43.6333C9.16671 43.1292 9.57921 42.7167 10.0834 42.7167C10.3859 42.7167 10.6792 42.8725 10.8442 43.1292C14.6392 48.8308 21.0375 52.2592 27.885 52.25C42.8542 52.2317 54.9817 40.1042 55 25.135V22C55 14.52 51.8192 9.35917 47.0892 9.17583Z" fill="#003974"/>
<path d="M37.5834 39.4167C37.5834 40.9384 38.8117 42.1667 40.3334 42.1667C41.855 42.1667 43.0834 40.9384 43.0834 39.4167C43.0834 37.8951 41.855 36.6667 40.3334 36.6667C38.8117 36.6667 37.5834 37.8951 37.5834 39.4167ZM41.25 39.4167C41.25 39.9209 40.8375 40.3334 40.3334 40.3334C39.8292 40.3334 39.4167 39.9209 39.4167 39.4167C39.4167 38.9126 39.8292 38.5001 40.3334 38.5001C40.8375 38.5001 41.25 38.9126 41.25 39.4167Z" fill="#003974"/>
<path d="M21.0834 44.9167C21.0834 46.4384 22.3117 47.6668 23.8334 47.6668C25.355 47.6668 26.5834 46.4384 26.5834 44.9167C26.5834 43.3951 25.355 42.1667 23.8334 42.1667C22.3117 42.1667 21.0834 43.3951 21.0834 44.9167ZM23.8334 44.0001C24.3375 44.0001 24.75 44.4126 24.75 44.9167C24.75 45.4209 24.3375 45.8334 23.8334 45.8334C23.3292 45.8334 22.9167 45.4209 22.9167 44.9167C22.9167 44.4126 23.3292 44.0001 23.8334 44.0001Z" fill="#003974"/>
<path d="M27.5 32.0833H36.8225C37.3267 33.5133 38.8942 34.265 40.3333 33.7608C41.1217 33.4858 41.7358 32.8717 42.0108 32.0833H51.3333V30.25H41.25C40.7458 30.25 40.3333 30.6625 40.3333 31.1667C40.3333 31.6708 39.9208 32.0833 39.4167 32.0833C38.9125 32.0833 38.5 31.6708 38.5 31.1667C38.5 30.6625 38.0875 30.25 37.5833 30.25H27.5V32.0833Z" fill="#003974"/>
<path d="M32.0833 44H30.25V45.8333H32.0833V44Z" fill="#003974"/>
<path d="M17.4167 38.5H15.5834V40.3333H17.4167V38.5Z" fill="#003974"/>
<path d="M24.75 33H22.9166V34.8333H24.75V33Z" fill="#003974"/>
<path d="M33.9166 36.6667C33.9166 35.1451 32.6883 33.9167 31.1666 33.9167C29.645 33.9167 28.4166 35.1451 28.4166 36.6667C28.4166 38.1884 29.645 39.4167 31.1666 39.4167C32.6883 39.4167 33.9166 38.1884 33.9166 36.6667ZM31.1666 37.5834C30.6625 37.5834 30.25 37.1709 30.25 36.6667C30.25 36.1626 30.6625 35.7501 31.1666 35.7501C31.6708 35.7501 32.0833 36.1626 32.0833 36.6667C32.0833 37.1709 31.6708 37.5834 31.1666 37.5834Z" fill="#003974"/>
<path d="M48.5833 33.9167H46.75V35.7501H48.5833V33.9167Z" fill="#003974"/>
</svg>
