<svg width="80" height="80" viewBox="0 0 80 80" fill="none" xmlns="http://www.w3.org/2000/svg">
<rect width="80" height="80" fill="white"/>
<path d="M50.9104 37.6128C50.906 37.6128 50.9017 37.6128 50.8973 37.6128H45.5743V32.2768C45.5815 31.2006 44.7149 30.3223 43.6387 30.3151C43.6343 30.3151 43.6299 30.3151 43.6256 30.3151H35.9356C34.8594 30.3151 33.9869 31.1876 33.9869 32.2637V37.5997H28.6639C27.5877 37.5925 26.7093 38.459 26.7021 39.5352C26.7021 39.544 26.7021 39.5527 26.7021 39.5615V47.2385C26.7021 48.3147 27.5746 49.1872 28.6508 49.1872H33.9869V54.5101C33.9797 55.5863 34.8463 56.4647 35.9225 56.4719C35.9269 56.4719 35.9314 56.4719 35.9356 56.4719H43.6125C44.6887 56.4719 45.5612 55.5994 45.5612 54.5232V49.1872H50.8973C51.9735 49.1944 52.8519 48.3278 52.8591 47.2516C52.8591 47.2472 52.8591 47.2428 52.8591 47.2385V39.5615C52.8591 38.4853 51.9868 37.6128 50.9104 37.6128ZM50.2434 46.5715H44.2665C43.5442 46.5715 42.9586 47.1571 42.9586 47.8794V53.8562H36.6026V47.8794C36.6026 47.1571 36.017 46.5715 35.2948 46.5715H29.3178V40.2285H35.2948C36.017 40.2285 36.6026 39.6429 36.6026 38.9207V32.9307H42.9455V38.9076C42.9455 39.6298 43.5311 40.2154 44.2534 40.2154H50.2434V46.5715Z" fill="#003A70"/>
<path d="M62.537 20.5324H51.7604V15.9288C51.8282 13.8281 50.1802 12.07 48.0795 12.0021C47.9724 11.9987 47.8653 11.9997 47.7584 12.0052H31.8027C29.7036 11.8959 27.9134 13.5088 27.8038 15.6077C27.7983 15.7146 27.7971 15.8217 27.8007 15.9288V20.5062H17.0241C12.8652 20.5062 8 22.8734 8 29.5303V57.9759C8 64.6328 12.8652 67 17.0241 67H62.537C66.6959 67 71.5611 64.6328 71.5611 57.9759V29.5565C71.5611 22.8996 66.709 20.5324 62.537 20.5324ZM30.4164 15.9288C30.4164 15.5495 30.4164 14.5294 31.8158 14.5294H47.7584C49.1578 14.5294 49.1578 15.5364 49.1578 15.9288V20.5062H30.4164V15.9288ZM68.9454 57.9759C68.9454 63.7565 64.4726 64.3843 62.537 64.3843H17.0241C15.1016 64.3843 10.6157 63.7565 10.6157 57.9759V29.5565C10.6157 23.7758 15.0885 23.1481 17.0241 23.1481H62.537C64.4595 23.1481 68.9454 23.7758 68.9454 29.5565V57.9759Z" fill="#003A70"/>
</svg>
